<svg width="85" height="85" viewBox="0 0 85 85" fill="none" xmlns="http://www.w3.org/2000/svg">
<path d="M38.3892 41.197C38.3892 41.197 42.4095 40.8916 42.4095 36.0811C42.4095 31.2746 39.6828 28.9052 35.5152 28.9052L21.2378 28.8826V55.4452H35.8472C35.8472 55.4452 43.1519 55.6763 43.1519 47.4764C43.1519 47.4764 43.6885 41.197 38.3892 41.197ZM26.5503 32.867H33.855C33.855 32.867 36.3545 32.9082 36.3545 36.1488C36.3545 39.5076 33.855 39.5076 33.855 39.5076H26.5503V32.867ZM34.5191 51.4608H26.5503V43.492H34.5191C34.5191 43.492 38.5034 43.5332 38.5034 47.4764C38.5034 51.4196 35.0928 51.4608 34.5191 51.4608Z" fill="#111111"/>
<path d="M54.4408 35.5238C44.4626 35.5238 44.4799 45.4848 44.4799 45.4848C44.4799 45.4848 43.8158 55.4457 54.4408 55.4457C54.4408 55.4457 63.7377 55.4457 63.7377 47.4769H58.4252C58.4252 47.4769 58.4252 51.4613 54.4408 51.4613C54.4408 51.4613 50.4565 51.4613 50.4565 46.1488C50.4565 46.1488 61.0815 46.1488 63.7377 46.1488C63.7377 43.4926 63.7377 35.5238 54.4408 35.5238ZM50.4565 43.4926C50.4565 43.4926 50.3688 39.5082 54.4408 39.5082C58.5115 39.5082 58.4252 43.4926 58.4252 43.4926H50.4565Z" fill="#111111"/>
<path d="M59.7544 31.5391H49.1294V34.1954H59.7544V31.5391Z" fill="#111111"/>
</svg>
