<svg width="47" height="47" viewBox="0 0 47 47" fill="none" xmlns="http://www.w3.org/2000/svg">
<path d="M15.743 23.4748C15.743 19.2049 19.2056 15.7427 23.4779 15.7427C27.7503 15.7427 31.2147 19.2049 31.2147 23.4748C31.2147 27.7446 27.7503 31.2069 23.4779 31.2069C19.2056 31.2069 15.743 27.7446 15.743 23.4748ZM11.5607 23.4748C11.5607 30.0527 16.896 35.3849 23.4779 35.3849C30.0599 35.3849 35.3952 30.0527 35.3952 23.4748C35.3952 16.8968 30.0599 11.5647 23.4779 11.5647C16.896 11.5647 11.5607 16.8968 11.5607 23.4748ZM33.082 11.0924C33.0817 11.6429 33.2449 12.1811 33.5507 12.639C33.8565 13.0968 34.2914 13.4537 34.8002 13.6646C35.309 13.8755 35.8689 13.9308 36.4092 13.8236C36.9495 13.7164 37.4458 13.4516 37.8355 13.0625C38.2251 12.6734 38.4906 12.1775 38.5982 11.6376C38.7059 11.0978 38.651 10.5381 38.4404 10.0294C38.2298 9.52077 37.873 9.08593 37.4152 8.77991C36.9573 8.47388 36.4189 8.31043 35.8681 8.31021H35.867C35.1286 8.31055 34.4206 8.60376 33.8984 9.12542C33.3763 9.64708 33.0826 10.3545 33.082 11.0924V11.0924ZM14.1017 42.3545C11.839 42.2516 10.6092 41.8749 9.79185 41.5566C8.7083 41.1351 7.93518 40.633 7.12233 39.8217C6.30947 39.0104 5.80632 38.2385 5.38634 37.1556C5.06773 36.3392 4.69083 35.1097 4.58797 32.8483C4.47545 30.4034 4.45299 29.669 4.45299 23.475C4.45299 17.2809 4.47731 16.5485 4.58797 14.1016C4.69101 11.8402 5.0707 10.6131 5.38634 9.79429C5.80817 8.71138 6.31059 7.93873 7.12233 7.12636C7.93406 6.314 8.70644 5.81114 9.79185 5.39141C10.6088 5.073 11.839 4.69632 14.1017 4.59352C16.5481 4.48108 17.283 4.45862 23.4779 4.45862C29.6729 4.45862 30.4085 4.48293 32.8569 4.59352C35.1197 4.69651 36.3475 5.07597 37.1668 5.39141C38.2504 5.81114 39.0235 6.31511 39.8364 7.12636C40.6492 7.93761 41.1505 8.71138 41.5723 9.79429C41.8909 10.6107 42.2679 11.8402 42.3707 14.1016C42.4832 16.5485 42.5057 17.2809 42.5057 23.475C42.5057 29.669 42.4832 30.4014 42.3707 32.8483C42.2677 35.1097 41.8889 36.3388 41.5723 37.1556C41.1505 38.2385 40.6481 39.0112 39.8364 39.8217C39.0246 40.6322 38.2504 41.1351 37.1668 41.5566C36.3499 41.8751 35.1197 42.2517 32.8569 42.3545C30.4106 42.467 29.6757 42.4894 23.4779 42.4894C17.2802 42.4894 16.5474 42.467 14.1017 42.3545V42.3545ZM13.9096 0.420739C11.4389 0.533186 9.75063 0.924709 8.27625 1.49808C6.74932 2.09019 5.4567 2.88455 4.16502 4.17342C2.87333 5.4623 2.08053 6.75618 1.48807 8.28219C0.914354 9.75662 0.522596 11.443 0.410081 13.9121C0.29571 16.3852 0.269531 17.1759 0.269531 23.4748C0.269531 29.7737 0.29571 30.5643 0.410081 33.0374C0.522596 35.5068 0.914354 37.1929 1.48807 38.6674C2.08053 40.1924 2.87352 41.4878 4.16502 42.7761C5.45652 44.0644 6.74932 44.8577 8.27625 45.4515C9.75342 46.0248 11.4389 46.4164 13.9096 46.5288C16.3855 46.6413 17.1753 46.6693 23.4779 46.6693C29.7806 46.6693 30.5717 46.6431 33.0463 46.5288C35.5172 46.4164 37.2043 46.0248 38.6796 45.4515C40.2056 44.8577 41.4992 44.065 42.7909 42.7761C44.0826 41.4873 44.8737 40.1924 45.4678 38.6674C46.0415 37.1929 46.4352 35.5066 46.5458 33.0374C46.6583 30.5625 46.6845 29.7737 46.6845 23.4748C46.6845 17.1759 46.6583 16.3852 46.5458 13.9121C46.4333 11.4428 46.0415 9.75569 45.4678 8.28219C44.8737 6.75711 44.0805 5.46434 42.7909 4.17342C41.5012 2.88251 40.2056 2.09019 38.6815 1.49808C37.2043 0.924709 35.517 0.531331 33.0482 0.420739C30.5736 0.308292 29.7825 0.280273 23.4798 0.280273C17.1771 0.280273 16.3855 0.306437 13.9096 0.420739Z" fill="url(#paint0_radial_1876_387)"/>
<path d="M15.743 23.4748C15.743 19.2049 19.2056 15.7427 23.4779 15.7427C27.7503 15.7427 31.2147 19.2049 31.2147 23.4748C31.2147 27.7446 27.7503 31.2069 23.4779 31.2069C19.2056 31.2069 15.743 27.7446 15.743 23.4748ZM11.5607 23.4748C11.5607 30.0527 16.896 35.3849 23.4779 35.3849C30.0599 35.3849 35.3952 30.0527 35.3952 23.4748C35.3952 16.8968 30.0599 11.5647 23.4779 11.5647C16.896 11.5647 11.5607 16.8968 11.5607 23.4748ZM33.082 11.0924C33.0817 11.6429 33.2449 12.1811 33.5507 12.639C33.8565 13.0968 34.2914 13.4537 34.8002 13.6646C35.309 13.8755 35.8689 13.9308 36.4092 13.8236C36.9495 13.7164 37.4458 13.4516 37.8355 13.0625C38.2251 12.6734 38.4906 12.1775 38.5982 11.6376C38.7059 11.0978 38.651 10.5381 38.4404 10.0294C38.2298 9.52077 37.873 9.08593 37.4152 8.77991C36.9573 8.47388 36.4189 8.31043 35.8681 8.31021H35.867C35.1286 8.31055 34.4206 8.60376 33.8984 9.12542C33.3763 9.64708 33.0826 10.3545 33.082 11.0924V11.0924ZM14.1017 42.3545C11.839 42.2516 10.6092 41.8749 9.79185 41.5566C8.7083 41.1351 7.93518 40.633 7.12233 39.8217C6.30947 39.0104 5.80632 38.2385 5.38634 37.1556C5.06773 36.3392 4.69083 35.1097 4.58797 32.8483C4.47545 30.4034 4.45299 29.669 4.45299 23.475C4.45299 17.2809 4.47731 16.5485 4.58797 14.1016C4.69101 11.8402 5.0707 10.6131 5.38634 9.79429C5.80817 8.71138 6.31059 7.93873 7.12233 7.12636C7.93406 6.314 8.70644 5.81114 9.79185 5.39141C10.6088 5.073 11.839 4.69632 14.1017 4.59352C16.5481 4.48108 17.283 4.45862 23.4779 4.45862C29.6729 4.45862 30.4085 4.48293 32.8569 4.59352C35.1197 4.69651 36.3475 5.07597 37.1668 5.39141C38.2504 5.81114 39.0235 6.31511 39.8364 7.12636C40.6492 7.93761 41.1505 8.71138 41.5723 9.79429C41.8909 10.6107 42.2679 11.8402 42.3707 14.1016C42.4832 16.5485 42.5057 17.2809 42.5057 23.475C42.5057 29.669 42.4832 30.4014 42.3707 32.8483C42.2677 35.1097 41.8889 36.3388 41.5723 37.1556C41.1505 38.2385 40.6481 39.0112 39.8364 39.8217C39.0246 40.6322 38.2504 41.1351 37.1668 41.5566C36.3499 41.8751 35.1197 42.2517 32.8569 42.3545C30.4106 42.467 29.6757 42.4894 23.4779 42.4894C17.2802 42.4894 16.5474 42.467 14.1017 42.3545V42.3545ZM13.9096 0.420739C11.4389 0.533186 9.75063 0.924709 8.27625 1.49808C6.74932 2.09019 5.4567 2.88455 4.16502 4.17342C2.87333 5.4623 2.08053 6.75618 1.48807 8.28219C0.914354 9.75662 0.522596 11.443 0.410081 13.9121C0.29571 16.3852 0.269531 17.1759 0.269531 23.4748C0.269531 29.7737 0.29571 30.5643 0.410081 33.0374C0.522596 35.5068 0.914354 37.1929 1.48807 38.6674C2.08053 40.1924 2.87352 41.4878 4.16502 42.7761C5.45652 44.0644 6.74932 44.8577 8.27625 45.4515C9.75342 46.0248 11.4389 46.4164 13.9096 46.5288C16.3855 46.6413 17.1753 46.6693 23.4779 46.6693C29.7806 46.6693 30.5717 46.6431 33.0463 46.5288C35.5172 46.4164 37.2043 46.0248 38.6796 45.4515C40.2056 44.8577 41.4992 44.065 42.7909 42.7761C44.0826 41.4873 44.8737 40.1924 45.4678 38.6674C46.0415 37.1929 46.4352 35.5066 46.5458 33.0374C46.6583 30.5625 46.6845 29.7737 46.6845 23.4748C46.6845 17.1759 46.6583 16.3852 46.5458 13.9121C46.4333 11.4428 46.0415 9.75569 45.4678 8.28219C44.8737 6.75711 44.0805 5.46434 42.7909 4.17342C41.5012 2.88251 40.2056 2.09019 38.6815 1.49808C37.2043 0.924709 35.517 0.531331 33.0482 0.420739C30.5736 0.308292 29.7825 0.280273 23.4798 0.280273C17.1771 0.280273 16.3855 0.306437 13.9096 0.420739Z" fill="url(#paint1_radial_1876_387)"/>
<defs>
<radialGradient id="paint0_radial_1876_387" cx="0" cy="0" r="1" gradientUnits="userSpaceOnUse" gradientTransform="translate(6.43628 46.8884) scale(60.5933 60.5569)">
<stop offset="0.09" stop-color="#FA8F21"/>
<stop offset="0.78" stop-color="#D82D7E"/>
</radialGradient>
<radialGradient id="paint1_radial_1876_387" cx="0" cy="0" r="1" gradientUnits="userSpaceOnUse" gradientTransform="translate(28.4193 48.9666) scale(47.7559 47.7272)">
<stop offset="0.64" stop-color="#8C3AAA" stop-opacity="0"/>
<stop offset="1" stop-color="#8C3AAA"/>
</radialGradient>
</defs>
</svg>
