<svg width="36" height="36" viewBox="0 0 36 36" fill="none" xmlns="http://www.w3.org/2000/svg">
<circle cx="18" cy="18" r="18" fill="white"/>
<circle cx="18" cy="18" r="18" fill="white"/>
<rect y="20" width="5" height="10" transform="rotate(-90 0 20)" fill="#141C1C"/>
<rect y="20" width="5" height="10" transform="rotate(-90 0 20)" fill="#141C1C"/>
<circle cx="18" cy="18" r="18" fill="white"/>
<rect y="21" width="6" height="9" transform="rotate(-90 0 21)" fill="#141C1C"/>
<path d="M14.16 25H17.44V10.76H14.64L10.72 13.7V17.02L14.16 14.46V25ZM25.4378 13.3L22.3578 16.44L23.0978 18.34C23.3778 18.2 23.8578 18.12 24.2578 18.12C25.6378 18.12 26.6578 19.1 26.6578 20.46C26.6578 21.82 25.6378 22.8 24.2178 22.8C22.7978 22.8 21.7578 21.56 21.5578 19.86L18.6178 20.32C18.8378 23.32 21.0778 25.5 24.2778 25.5C27.4778 25.5 29.8178 23.5 29.8178 20.7C29.8178 18.4 28.2978 16.58 26.1178 16.18L29.3778 12.64V10.76H19.3378V13.3H25.4378Z" fill="#141C1C"/>
</svg>
