<svg width="36" height="36" viewBox="0 0 36 36" fill="none" xmlns="http://www.w3.org/2000/svg">
<circle cx="18" cy="18" r="18" fill="white"/>
<circle cx="18" cy="18" r="18" fill="white"/>
<rect y="20" width="5" height="10" transform="rotate(-90 0 20)" fill="#141C1C"/>
<rect y="20" width="5" height="10" transform="rotate(-90 0 20)" fill="#141C1C"/>
<circle cx="18" cy="18" r="18" fill="white"/>
<rect y="21" width="6" height="9" transform="rotate(-90 0 21)" fill="#141C1C"/>
<path d="M14.16 25H17.44V10.76H14.64L10.72 13.7V17.02L14.16 14.46V25ZM24.5578 22.78C23.1578 22.8 22.1578 21.72 22.1578 20.18C22.1578 18.7 23.1578 17.66 24.5578 17.68C25.9178 17.68 26.8778 18.72 26.8778 20.18C26.8778 21.7 25.9178 22.78 24.5578 22.78ZM19.9578 17.04C19.3378 17.9 18.7978 19.24 18.7978 20.36C18.7978 23.38 21.1178 25.5 24.4578 25.5C27.8778 25.5 30.2378 23.32 30.2378 20.18C30.2378 17.42 28.4378 15.44 25.8578 15.44C25.4178 15.44 24.9978 15.52 24.6578 15.58L28.2778 10.76H24.5378L19.9578 17.04Z" fill="#141C1C"/>
</svg>
