<svg width="99" height="98" viewBox="0 0 99 98" fill="none" xmlns="http://www.w3.org/2000/svg">
<path d="M40.6622 48.9998C40.6622 44.074 44.6567 40.0798 49.5855 40.0798C54.5142 40.0798 58.5108 44.074 58.5108 48.9998C58.5108 53.9256 54.5142 57.9198 49.5855 57.9198C44.6567 57.9198 40.6622 53.9256 40.6622 48.9998ZM35.8374 48.9998C35.8374 56.5884 41.9924 62.7397 49.5855 62.7397C57.1786 62.7397 63.3336 56.5884 63.3336 48.9998C63.3336 41.4113 57.1786 35.26 49.5855 35.26C41.9924 35.26 35.8374 41.4113 35.8374 48.9998ZM60.6649 34.7152C60.6647 35.3503 60.8529 35.9711 61.2057 36.4993C61.5585 37.0275 62.0601 37.4392 62.6471 37.6825C63.2341 37.9258 63.8801 37.9896 64.5034 37.866C65.1266 37.7423 65.6992 37.4367 66.1488 36.9879C66.5983 36.539 66.9045 35.967 67.0287 35.3442C67.1529 34.7213 67.0896 34.0757 66.8466 33.4889C66.6037 32.9021 66.1921 32.4004 65.6639 32.0474C65.1357 31.6943 64.5145 31.5058 63.8791 31.5055H63.8778C63.0261 31.5059 62.2093 31.8442 61.6069 32.446C61.0045 33.0478 60.6657 33.8639 60.6649 34.7152V34.7152ZM38.7688 70.7801C36.1584 70.6613 34.7396 70.2268 33.7968 69.8596C32.5467 69.3733 31.6548 68.794 30.7171 67.8581C29.7794 66.9223 29.1989 66.0318 28.7144 64.7825C28.3469 63.8406 27.9121 62.4222 27.7934 59.8134C27.6636 56.9929 27.6377 56.1457 27.6377 49C27.6377 41.8544 27.6657 41.0095 27.7934 38.1866C27.9123 35.5779 28.3503 34.1623 28.7144 33.2176C29.2011 31.9683 29.7807 31.077 30.7171 30.1398C31.6536 29.2026 32.5446 28.6225 33.7968 28.1383C34.7392 27.771 36.1584 27.3364 38.7688 27.2178C41.591 27.0881 42.4387 27.0622 49.5855 27.0622C56.7322 27.0622 57.5808 27.0903 60.4053 27.2178C63.0157 27.3366 64.4321 27.7744 65.3774 28.1383C66.6274 28.6225 67.5193 29.2039 68.457 30.1398C69.3948 31.0757 69.9731 31.9683 70.4597 33.2176C70.8273 34.1595 71.2621 35.5779 71.3807 38.1866C71.5105 41.0095 71.5365 41.8544 71.5365 49C71.5365 56.1457 71.5105 56.9906 71.3807 59.8134C71.2619 62.4222 70.8249 63.8402 70.4597 64.7825C69.9731 66.0318 69.3935 66.9231 68.457 67.8581C67.5206 68.7932 66.6274 69.3733 65.3774 69.8596C64.4349 70.227 63.0157 70.6615 60.4053 70.7801C57.5832 70.9098 56.7354 70.9357 49.5855 70.9357C42.4355 70.9357 41.5901 70.9098 38.7688 70.7801V70.7801ZM38.5471 22.404C35.6969 22.5337 33.7492 22.9854 32.0483 23.6468C30.2868 24.3299 28.7956 25.2463 27.3055 26.7332C25.8153 28.2201 24.9007 29.7127 24.2173 31.4732C23.5554 33.1741 23.1035 35.1196 22.9737 37.9681C22.8417 40.8211 22.8115 41.7332 22.8115 48.9998C22.8115 56.2664 22.8417 57.1785 22.9737 60.0316C23.1035 62.8803 23.5554 64.8255 24.2173 66.5265C24.9007 68.2858 25.8156 69.7802 27.3055 71.2665C28.7954 72.7527 30.2868 73.6678 32.0483 74.3528C33.7524 75.0143 35.6969 75.4659 38.5471 75.5957C41.4033 75.7254 42.3145 75.7577 49.5855 75.7577C56.8564 75.7577 57.7691 75.7275 60.6238 75.5957C63.4743 75.4659 65.4206 75.0143 67.1226 74.3528C68.883 73.6678 70.3753 72.7533 71.8654 71.2665C73.3556 69.7796 74.2683 68.2858 74.9537 66.5265C75.6155 64.8255 76.0696 62.8801 76.1973 60.0316C76.3271 57.1764 76.3573 56.2664 76.3573 48.9998C76.3573 41.7332 76.3271 40.8211 76.1973 37.9681C76.0675 35.1193 75.6155 33.1731 74.9537 31.4732C74.2683 29.7138 73.3532 28.2224 71.8654 26.7332C70.3777 25.244 68.883 24.3299 67.1247 23.6468C65.4206 22.9854 63.4741 22.5316 60.626 22.404C57.7712 22.2743 56.8585 22.2419 49.5876 22.2419C42.3167 22.2419 41.4033 22.2721 38.5471 22.404Z" fill="url(#paint0_radial_1081_1442)"/>
<path d="M40.6622 48.9998C40.6622 44.074 44.6567 40.0798 49.5855 40.0798C54.5142 40.0798 58.5108 44.074 58.5108 48.9998C58.5108 53.9256 54.5142 57.9198 49.5855 57.9198C44.6567 57.9198 40.6622 53.9256 40.6622 48.9998ZM35.8374 48.9998C35.8374 56.5884 41.9924 62.7397 49.5855 62.7397C57.1786 62.7397 63.3336 56.5884 63.3336 48.9998C63.3336 41.4113 57.1786 35.26 49.5855 35.26C41.9924 35.26 35.8374 41.4113 35.8374 48.9998ZM60.6649 34.7152C60.6647 35.3503 60.8529 35.9711 61.2057 36.4993C61.5585 37.0275 62.0601 37.4392 62.6471 37.6825C63.2341 37.9258 63.8801 37.9896 64.5034 37.866C65.1266 37.7423 65.6992 37.4367 66.1488 36.9879C66.5983 36.539 66.9045 35.967 67.0287 35.3442C67.1529 34.7213 67.0896 34.0757 66.8466 33.4889C66.6037 32.9021 66.1921 32.4004 65.6639 32.0474C65.1357 31.6943 64.5145 31.5058 63.8791 31.5055H63.8778C63.0261 31.5059 62.2093 31.8442 61.6069 32.446C61.0045 33.0478 60.6657 33.8639 60.6649 34.7152V34.7152ZM38.7688 70.7801C36.1584 70.6613 34.7396 70.2268 33.7968 69.8596C32.5467 69.3733 31.6548 68.794 30.7171 67.8581C29.7794 66.9223 29.1989 66.0318 28.7144 64.7825C28.3469 63.8406 27.9121 62.4222 27.7934 59.8134C27.6636 56.9929 27.6377 56.1457 27.6377 49C27.6377 41.8544 27.6657 41.0095 27.7934 38.1866C27.9123 35.5779 28.3503 34.1623 28.7144 33.2176C29.2011 31.9683 29.7807 31.077 30.7171 30.1398C31.6536 29.2026 32.5446 28.6225 33.7968 28.1383C34.7392 27.771 36.1584 27.3364 38.7688 27.2178C41.591 27.0881 42.4387 27.0622 49.5855 27.0622C56.7322 27.0622 57.5808 27.0903 60.4053 27.2178C63.0157 27.3366 64.4321 27.7744 65.3774 28.1383C66.6274 28.6225 67.5193 29.2039 68.457 30.1398C69.3948 31.0757 69.9731 31.9683 70.4597 33.2176C70.8273 34.1595 71.2621 35.5779 71.3807 38.1866C71.5105 41.0095 71.5365 41.8544 71.5365 49C71.5365 56.1457 71.5105 56.9906 71.3807 59.8134C71.2619 62.4222 70.8249 63.8402 70.4597 64.7825C69.9731 66.0318 69.3935 66.9231 68.457 67.8581C67.5206 68.7932 66.6274 69.3733 65.3774 69.8596C64.4349 70.227 63.0157 70.6615 60.4053 70.7801C57.5832 70.9098 56.7354 70.9357 49.5855 70.9357C42.4355 70.9357 41.5901 70.9098 38.7688 70.7801V70.7801ZM38.5471 22.404C35.6969 22.5337 33.7492 22.9854 32.0483 23.6468C30.2868 24.3299 28.7956 25.2463 27.3055 26.7332C25.8153 28.2201 24.9007 29.7127 24.2173 31.4732C23.5554 33.1741 23.1035 35.1196 22.9737 37.9681C22.8417 40.8211 22.8115 41.7332 22.8115 48.9998C22.8115 56.2664 22.8417 57.1785 22.9737 60.0316C23.1035 62.8803 23.5554 64.8255 24.2173 66.5265C24.9007 68.2858 25.8156 69.7802 27.3055 71.2665C28.7954 72.7527 30.2868 73.6678 32.0483 74.3528C33.7524 75.0143 35.6969 75.4659 38.5471 75.5957C41.4033 75.7254 42.3145 75.7577 49.5855 75.7577C56.8564 75.7577 57.7691 75.7275 60.6238 75.5957C63.4743 75.4659 65.4206 75.0143 67.1226 74.3528C68.883 73.6678 70.3753 72.7533 71.8654 71.2665C73.3556 69.7796 74.2683 68.2858 74.9537 66.5265C75.6155 64.8255 76.0696 62.8801 76.1973 60.0316C76.3271 57.1764 76.3573 56.2664 76.3573 48.9998C76.3573 41.7332 76.3271 40.8211 76.1973 37.9681C76.0675 35.1193 75.6155 33.1731 74.9537 31.4732C74.2683 29.7138 73.3532 28.2224 71.8654 26.7332C70.3777 25.244 68.883 24.3299 67.1247 23.6468C65.4206 22.9854 63.4741 22.5316 60.626 22.404C57.7712 22.2743 56.8585 22.2419 49.5876 22.2419C42.3167 22.2419 41.4033 22.2721 38.5471 22.404Z" fill="url(#paint1_radial_1081_1442)"/>
<defs>
<radialGradient id="paint0_radial_1081_1442" cx="0" cy="0" r="1" gradientUnits="userSpaceOnUse" gradientTransform="translate(29.9257 76.0105) scale(69.9023 69.8603)">
<stop offset="0.09" stop-color="#FA8F21"/>
<stop offset="0.78" stop-color="#D82D7E"/>
</radialGradient>
<radialGradient id="paint1_radial_1081_1442" cx="0" cy="0" r="1" gradientUnits="userSpaceOnUse" gradientTransform="translate(55.286 78.408) scale(55.0926 55.0596)">
<stop offset="0.64" stop-color="#8C3AAA" stop-opacity="0"/>
<stop offset="1" stop-color="#8C3AAA"/>
</radialGradient>
</defs>
</svg>
