<svg width="25" height="30" viewBox="0 0 25 30" fill="none" xmlns="http://www.w3.org/2000/svg">
<path d="M20.6891 16.6852C20.2765 17.0945 20.2739 17.7607 20.6831 18.1733C21.0924 18.5858 21.7586 18.5885 22.1712 18.1792L20.6891 16.6852ZM22.1712 11.0735C21.7586 10.6643 21.0924 10.6669 20.6831 11.0795C20.2739 11.492 20.2765 12.1582 20.6891 12.5675L22.1712 11.0735ZM23.2545 13.6304L22.5134 14.3774L23.2545 13.6304ZM22.1712 18.1792L23.9955 16.3693L22.5134 14.8754L20.6891 16.6852L22.1712 18.1792ZM23.9955 12.8834L22.1712 11.0735L20.6891 12.5675L22.5134 14.3774L23.9955 12.8834ZM23.9955 16.3693C24.9636 15.409 24.9636 13.8438 23.9955 12.8834L22.5134 14.3774C22.6517 14.5146 22.6517 14.7382 22.5134 14.8754L23.9955 16.3693Z" fill="white"/>
<path d="M22.8442 15.6786C23.4254 15.6786 23.8964 15.2075 23.8964 14.6264C23.8964 14.0453 23.4254 13.5742 22.8442 13.5742L22.8442 15.6786ZM14.3593 13.5742C13.7782 13.5742 13.3071 14.0453 13.3071 14.6264C13.3071 15.2075 13.7782 15.6786 14.3593 15.6786L14.3593 13.5742ZM0.579761 22.0146C0.579761 22.5958 1.05085 23.0668 1.63196 23.0668C2.21307 23.0668 2.68415 22.5958 2.68415 22.0146H0.579761ZM19.654 22.0147C19.654 21.4335 19.1829 20.9625 18.6018 20.9625C18.0207 20.9625 17.5496 21.4335 17.5496 22.0147H19.654ZM17.5496 7.98536C17.5496 8.56647 18.0207 9.03755 18.6018 9.03755C19.1829 9.03755 19.654 8.56647 19.654 7.98536H17.5496ZM2.68415 7.98536C2.68415 7.40425 2.21307 6.93316 1.63196 6.93316C1.05085 6.93316 0.579761 7.40425 0.579761 7.98536H2.68415ZM2.8914 25.6535L3.47184 24.7759L3.47184 24.7759L2.8914 25.6535ZM5.71971 27.524L5.13927 28.4017L5.13927 28.4017L5.71971 27.524ZM5.71971 2.47596L5.13927 1.59834L5.13927 1.59834L5.71971 2.47596ZM2.8914 4.34653L2.31097 3.46892L2.8914 4.34653ZM10.1169 4.1273C9.53576 4.1273 9.06468 4.59839 9.06468 5.1795C9.06468 5.76061 9.53576 6.2317 10.1169 6.2317V4.1273ZM10.1169 23.7683C9.53576 23.7683 9.06468 24.2394 9.06468 24.8205C9.06468 25.4016 9.53576 25.8727 10.1169 25.8727V23.7683ZM22.8442 13.5742L14.3593 13.5742L14.3593 15.6786L22.8442 15.6786L22.8442 13.5742ZM2.68415 22.0146V7.98536H0.579761V22.0146H2.68415ZM17.5496 22.0147C17.5496 22.9753 16.7623 23.7683 15.7735 23.7683V25.8727C17.9087 25.8727 19.654 24.1533 19.654 22.0147H17.5496ZM15.7735 6.2317C16.7623 6.2317 17.5496 7.02473 17.5496 7.98536H19.654C19.654 5.84672 17.9087 4.1273 15.7735 4.1273V6.2317ZM3.47184 5.22415L6.30014 3.35358L5.13927 1.59834L2.31097 3.46892L3.47184 5.22415ZM9.06468 4.81058V25.1894H11.1691V4.81058H9.06468ZM6.30014 26.6464L3.47184 24.7759L2.31097 26.5311L5.13927 28.4017L6.30014 26.6464ZM2.68415 23.3189V6.68115H0.579761V23.3189H2.68415ZM3.47184 24.7759C2.9776 24.449 2.68415 23.9015 2.68415 23.3189H0.579761C0.579761 24.6125 1.23154 25.8172 2.31097 26.5311L3.47184 24.7759ZM9.06468 25.1894C9.06468 26.5766 7.49295 27.4353 6.30014 26.6464L5.13927 28.4017C7.7056 30.099 11.1691 28.2843 11.1691 25.1894H9.06468ZM6.30014 3.35358C7.49295 2.56469 9.06468 3.4234 9.06468 4.81058H11.1691C11.1691 1.7157 7.7056 -0.0989625 5.13927 1.59834L6.30014 3.35358ZM2.31097 3.46892C1.23154 4.18282 0.579761 5.38746 0.579761 6.68115H2.68415C2.68415 6.09854 2.97761 5.55102 3.47184 5.22415L2.31097 3.46892ZM10.1169 6.2317H15.7735V4.1273H10.1169V6.2317ZM15.7735 23.7683H10.1169V25.8727H15.7735V23.7683Z" fill="white"/>
</svg>
