<svg width="66" height="32" viewBox="0 0 66 32" fill="none" xmlns="http://www.w3.org/2000/svg">
<path d="M4.38849 9.16H9.62849V6.24H4.38849V4.06H10.4285V0.68H0.208491V15H10.6285V11.6H4.38849V9.16ZM12.6266 6.808V15H15.0266V10.392C15.0266 9.352 15.7946 8.6 16.7386 8.6C17.6826 8.6 18.2586 9.304 18.2586 10.296V15H20.6586V9.88C20.6586 7.912 19.4106 6.488 17.5706 6.488C16.4986 6.488 15.5386 7.032 14.9626 7.912V6.808H12.6266ZM26.9157 8.648C28.1637 8.648 29.0597 9.608 29.0597 10.904C29.0597 12.2 28.1637 13.16 26.9157 13.16C25.6837 13.16 24.7717 12.216 24.7717 10.904C24.7717 9.608 25.6677 8.648 26.9157 8.648ZM22.3717 10.904C22.3717 13.496 23.9877 15.32 26.2597 15.32C27.4117 15.32 28.3557 14.824 28.9957 14.008V15H31.3637V3.128H28.9637V7.8C28.3237 6.968 27.3797 6.488 26.2597 6.488C23.9877 6.488 22.3717 8.312 22.3717 10.904ZM33.5869 3.128V15H35.9869V3.128H33.5869ZM40.312 10.136C40.52 9.048 41.256 8.328 42.312 8.328C43.4 8.328 44.2 9.096 44.344 10.136H40.312ZM37.848 10.84C37.848 13.48 39.704 15.32 42.344 15.32C44.344 15.32 46.072 14.152 46.472 12.552L44.312 12.248C44.056 12.968 43.304 13.48 42.408 13.48C41.32 13.48 40.536 12.728 40.328 11.576L46.744 11.592C46.776 11.416 46.776 11.08 46.776 10.872C46.776 8.28 44.984 6.488 42.36 6.488C39.72 6.488 37.848 8.28 37.848 10.84ZM56.0176 12.408C56.0176 10.488 53.9216 10.152 52.2576 9.928C51.3296 9.784 50.6096 9.624 50.6096 9.08C50.6256 8.536 51.2176 8.152 51.9536 8.152C52.9136 8.152 53.6336 8.616 53.6336 9.288H55.7456C55.7456 7.64 54.1616 6.456 51.9696 6.456C49.9696 6.456 48.4496 7.608 48.4496 9.208C48.4496 11.208 49.9696 11.496 51.7936 11.72C52.7856 11.816 53.7136 12.008 53.7136 12.696C53.7136 13.24 53.0736 13.656 52.1936 13.656C51.1536 13.656 50.4016 13.08 50.4016 12.264H48.3696C48.3536 14.056 49.9536 15.352 52.1616 15.352C54.4496 15.352 56.0176 14.12 56.0176 12.408ZM65.2557 12.408C65.2557 10.488 63.1597 10.152 61.4957 9.928C60.5677 9.784 59.8477 9.624 59.8477 9.08C59.8637 8.536 60.4557 8.152 61.1917 8.152C62.1517 8.152 62.8717 8.616 62.8717 9.288H64.9837C64.9837 7.64 63.3997 6.456 61.2077 6.456C59.2077 6.456 57.6877 7.608 57.6877 9.208C57.6877 11.208 59.2077 11.496 61.0317 11.72C62.0237 11.816 62.9517 12.008 62.9517 12.696C62.9517 13.24 62.3117 13.656 61.4317 13.656C60.3917 13.656 59.6397 13.08 59.6397 12.264H57.6077C57.5917 14.056 59.1917 15.352 61.3997 15.352C63.6877 15.352 65.2557 14.12 65.2557 12.408ZM25.1726 19.544H21.7326L19.5566 27.944L17.3966 19.544H13.8926L16.9806 31H21.7646L23.4446 24.088L25.1246 31H29.9086L32.9806 19.544H29.4926L27.3486 27.944L25.1726 19.544ZM38.7139 29.208C37.4659 29.208 36.5699 28.232 36.5699 26.904C36.5699 25.576 37.4659 24.6 38.7139 24.6C39.9619 24.6 40.8579 25.576 40.8579 26.904C40.8579 28.232 39.9619 29.208 38.7139 29.208ZM40.8739 23.944C40.2339 23.032 39.2579 22.488 38.0899 22.488C35.7859 22.488 34.1699 24.312 34.1699 26.904C34.1699 29.496 35.7859 31.32 38.0899 31.32C39.2579 31.32 40.2339 30.776 40.8739 29.864V31H43.2739V22.808H40.8739V23.944ZM45.5104 22.808V31H47.9104V26.648C47.9104 25.416 48.5984 24.552 49.6384 24.552C49.9904 24.552 50.5344 24.648 50.9824 24.84V22.712C50.6624 22.584 50.3264 22.504 50.0064 22.504C49.1104 22.504 48.2944 23.032 47.8144 23.848V22.808H45.5104Z" fill="white"/>
</svg>
