<svg width="99" height="98" viewBox="0 0 99 98" fill="none" xmlns="http://www.w3.org/2000/svg">
<path d="M44.7039 47.5262C44.7039 47.5262 49.3418 47.1738 49.3418 41.6242C49.3418 36.0793 46.1962 33.3459 41.3883 33.3459L24.9175 33.3199V63.9633H41.7713C41.7713 63.9633 50.1983 64.2299 50.1983 54.7702C50.1983 54.7702 50.8173 47.5262 44.7039 47.5262ZM31.0462 37.9164H39.4731C39.4731 37.9164 42.3566 37.9639 42.3566 41.7024C42.3566 45.5772 39.4731 45.5772 39.4731 45.5772H31.0462V37.9164ZM40.2392 59.3668H31.0462V50.1737H40.2392C40.2392 50.1737 44.8357 50.2212 44.8357 54.7702C44.8357 59.3193 40.9011 59.3668 40.2392 59.3668Z" fill="#111111"/>
<path d="M63.2219 40.9813C51.7107 40.9813 51.7306 52.4726 51.7306 52.4726C51.7306 52.4726 50.9646 63.9639 63.2219 63.9639C63.2219 63.9639 73.9471 63.9639 73.9471 54.7708H67.8184C67.8184 54.7708 67.8184 59.3673 63.2219 59.3673C63.2219 59.3673 58.6254 59.3673 58.6254 53.2387C58.6254 53.2387 70.8828 53.2387 73.9471 53.2387C73.9471 50.1743 73.9471 40.9813 63.2219 40.9813ZM58.6254 50.1743C58.6254 50.1743 58.5243 45.5778 63.2219 45.5778C67.918 45.5778 67.8184 50.1743 67.8184 50.1743H58.6254Z" fill="#111111"/>
<path d="M69.3511 36.3845H57.0938V39.4489H69.3511V36.3845Z" fill="#111111"/>
</svg>
